<svg xmlns="http://www.w3.org/2000/svg" xmlns:xlink="http://www.w3.org/1999/xlink" width="781" height="461.14" viewBox="0 0 781 461.14"><defs><clipPath id="a"><polygon points="147.08 320.11 181.08 293.05 319.44 293.05 353.44 320.11 147.08 320.11" fill="#fff"/></clipPath><clipPath id="b"><path d="M356.31,321.1H144.21l36.52-29.05H319.79Zm-206.37-2H350.58l-31.49-25.05H181.43Z" fill="#4c5054" clip-path="url(#a)"/></clipPath><clipPath id="c"><path d="M204.75,128.42s-2.86,31.69,44.54,31.84c51.27.15,44.76-31.79,46.87-32.2l-.53-2.51s3.93,2,13.41,2,9.66-3.22,9.66-3.22V81s.72-10.38-12-15.21-32.2-8.22-61.54-7-40.25,2.5-49.37,6.08-13.6,7.69-13.6,17.71-.18,43.29-.18,43.29,3,3.22,12.7,3.22,10-2.68,10-2.68Z" fill="none"/></clipPath></defs><title>Attack on CORS</title><rect x="624.12" y="98.71" width="1" height="277.31" fill="#cbd0d1"/><rect x="533.91" y="163.25" width="175.43" height="170.63" fill="#fff"/><polygon points="370.2 158.11 376.08 149.22 382.2 158.15 370.2 158.11" fill="#cbd0d1"/><polygon points="437.25 119.47 443.13 110.58 449.25 119.51 437.25 119.47" fill="#cbd0d1"/><polygon points="630.57 112.81 624.69 121.7 618.57 112.77 630.57 112.81" fill="#cbd0d1"/><polygon points="630.57 348.63 624.69 357.52 618.57 348.6 630.57 348.63" fill="#cbd0d1"/><rect x="186.34" y="116.99" width="127.84" height="93.47" rx="8.41" fill="#fff"/><path d="M305.77,211.46h-111a9.42,9.42,0,0,1-9.41-9.41V125.4a9.43,9.43,0,0,1,9.41-9.41h111a9.43,9.43,0,0,1,9.41,9.41v76.65A9.42,9.42,0,0,1,305.77,211.46ZM194.75,118a7.42,7.42,0,0,0-7.41,7.41v76.65a7.41,7.41,0,0,0,7.41,7.41h111a7.41,7.41,0,0,0,7.41-7.41V125.4a7.42,7.42,0,0,0-7.41-7.41Z" fill="#4c5054"/><path d="M193.63,124.62V225.36h45.42v-25.5a11.21,11.21,0,0,1,22.42,0v25.5h45.42V124.62Z" fill="#4c5054"/><rect x="62.32" y="180.41" width="350.8" height="163.56" fill="#fff"/><path d="M414.12,345H61.32V179.41h352.8Zm-350.8-2h348.8V181.41H63.32Z" fill="#4c5054"/><rect x="179.61" y="208.22" width="141.3" height="80.63" fill="#fff"/><path d="M321.91,289.85H178.61V207.22h143.3Zm-141.3-2h139.3V209.22H180.61Z" fill="#4c5054"/><rect x="201.48" y="234.32" width="97.56" height="37.01" fill="#fff"/><rect x="201.48" y="264.6" width="6.73" height="6.73" fill="#cbd0d1"/><rect x="211.57" y="264.6" width="6.73" height="6.73" fill="#cbd0d1"/><rect x="221.66" y="264.6" width="6.73" height="6.73" fill="#cbd0d1"/><rect x="231.76" y="264.6" width="6.73" height="6.73" fill="#cbd0d1"/><rect x="241.85" y="264.6" width="6.73" height="6.73" fill="#cbd0d1"/><rect x="251.94" y="264.6" width="6.73" height="6.73" fill="#cbd0d1"/><rect x="262.04" y="264.6" width="6.73" height="6.73" fill="#cbd0d1"/><rect x="272.13" y="264.6" width="6.73" height="6.73" fill="#cbd0d1"/><rect x="282.22" y="264.6" width="6.73" height="6.73" fill="#cbd0d1"/><rect x="292.31" y="264.6" width="6.73" height="6.73" fill="#cbd0d1"/><rect x="201.48" y="254.5" width="6.73" height="6.73" fill="#cbd0d1"/><rect x="211.57" y="254.5" width="6.73" height="6.73" fill="#cbd0d1"/><rect x="221.66" y="254.5" width="6.73" height="6.73" fill="#cbd0d1"/><rect x="231.76" y="254.5" width="6.73" height="6.73" fill="#cbd0d1"/><rect x="241.85" y="254.5" width="6.73" height="6.73" fill="#cbd0d1"/><rect x="251.94" y="254.5" width="6.73" height="6.73" fill="#cbd0d1"/><rect x="262.04" y="254.5" width="6.73" height="6.73" fill="#cbd0d1"/><rect x="272.13" y="254.5" width="6.73" height="6.73" fill="#cbd0d1"/><rect x="282.22" y="254.5" width="6.73" height="6.73" fill="#cbd0d1"/><rect x="292.31" y="254.5" width="6.73" height="6.73" fill="#cbd0d1"/><rect x="282.22" y="244.41" width="16.82" height="6.73" fill="#cbd0d1"/><rect x="201.48" y="244.41" width="16.22" height="6.73" fill="#cbd0d1"/><rect x="221.66" y="244.41" width="6.73" height="6.73" fill="#cbd0d1"/><rect x="231.76" y="244.41" width="6.73" height="6.73" fill="#cbd0d1"/><rect x="241.85" y="244.41" width="6.73" height="6.73" fill="#cbd0d1"/><rect x="251.94" y="244.41" width="6.73" height="6.73" fill="#cbd0d1"/><rect x="262.04" y="244.41" width="6.73" height="6.73" fill="#cbd0d1"/><rect x="272.13" y="244.41" width="6.73" height="6.73" fill="#cbd0d1"/><rect x="201.48" y="234.32" width="6.73" height="6.73" fill="#cbd0d1"/><rect x="211.57" y="234.32" width="6.73" height="6.73" fill="#cbd0d1"/><rect x="221.66" y="234.32" width="6.73" height="6.73" fill="#cbd0d1"/><rect x="231.76" y="234.32" width="36.54" height="6.73" fill="#cbd0d1"/><rect x="272.13" y="234.32" width="6.73" height="6.73" fill="#cbd0d1"/><rect x="282.22" y="234.32" width="6.73" height="6.73" fill="#cbd0d1"/><rect x="292.31" y="234.32" width="6.73" height="6.73" fill="#cbd0d1"/><path d="M201.48,286.74v4.62H299v-4.62a2.52,2.52,0,0,0-2.52-2.52H204A2.52,2.52,0,0,0,201.48,286.74Z" fill="#4c5054"/><path d="M361.17,322.15H139.36v3.54h0c0,1.21,1.42,2,4.09,2H357.08c2.67,0,4.06-.77,4.08-2h0Z" fill="#4c5054"/><path d="M358.9,319.07l-38-30.22H179.61l-38,30.22c-3.64,2.9-2.82,5.24,1.83,5.24H357.08C361.72,324.31,362.54,322,358.9,319.07Z" fill="#4c5054"/><polygon points="147.08 320.11 181.08 293.05 319.44 293.05 353.44 320.11 147.08 320.11" fill="#fff"/><path d="M356.31,321.1H144.21l36.52-29.05H319.79Zm-206.37-2H350.58l-31.49-25.05H181.43Z" fill="#4c5054"/><g clip-path="url(#b)"><g opacity="0.2"><rect x="282.22" y="326.55" width="16.82" height="6.73" fill="#a7a9ac"/><rect x="201.48" y="326.55" width="16.22" height="6.73" fill="#a7a9ac"/><rect x="221.66" y="326.55" width="6.73" height="6.73" fill="#a7a9ac"/><rect x="231.76" y="326.55" width="6.73" height="6.73" fill="#a7a9ac"/><rect x="241.85" y="326.55" width="6.73" height="6.73" fill="#a7a9ac"/><rect x="251.94" y="326.55" width="6.73" height="6.73" fill="#a7a9ac"/><rect x="262.04" y="326.55" width="6.73" height="6.73" fill="#a7a9ac"/><rect x="272.13" y="326.55" width="6.73" height="6.73" fill="#a7a9ac"/><rect x="201.48" y="336.65" width="6.73" height="6.73" fill="#a7a9ac"/><rect x="211.57" y="336.65" width="6.73" height="6.73" fill="#a7a9ac"/><rect x="221.66" y="336.65" width="6.73" height="6.73" fill="#a7a9ac"/><rect x="231.76" y="336.65" width="36.54" height="6.73" fill="#a7a9ac"/><rect x="272.13" y="336.65" width="6.73" height="6.73" fill="#a7a9ac"/><rect x="282.22" y="336.65" width="6.73" height="6.73" fill="#a7a9ac"/><rect x="292.31" y="336.65" width="6.73" height="6.73" fill="#a7a9ac"/></g></g><polygon points="295.63 108.06 318.39 108.06 313.05 152.88 293.45 152.47 295.63 108.06" fill="#fff"/><polygon points="278.19 214.62 288.02 218.42 312.66 152.44 295.09 146.01 278.19 214.62" fill="#fff"/><polygon points="290.46 215.29 288.59 214.58 311.95 153.36 312.2 152.12 317.26 109.06 296.57 109.06 293.85 152.15 280.12 211.59 278.17 211.14 291.88 151.78 294.69 107.06 319.51 107.06 314.17 152.43 313.85 153.99 290.46 215.29" fill="#4c5054"/><path d="M289.53,214.93,288,218.42c-1.74,3.48-.34,4,.4,4.94.92,1.24,2.12,2.52,1.19,5.91L283,246.52a2,2,0,1,1-3.8-1.39l3-9.62L278,248.19a2,2,0,0,1-3.8-1.39l4.13-12.71-5.56,16.47a2,2,0,0,1-3.8-1.38l5.6-16.94-4.79,14.36a2,2,0,0,1-3.8-1.38l4.47-14.17L268.62,237a2.59,2.59,0,0,1-3.06,1.21,2,2,0,0,1-1.21-2.59l4-12.63h0l.63-1.73c.6-1.63,3-3.12,4.8-3.68s3.56-.48,4.44-2.95l1-3.26Z" fill="#fff"/><path d="M270.86,252.89a3.12,3.12,0,0,1-1-.18,3,3,0,0,1-1.84-3.78,2.83,2.83,0,0,1-1.15-.18,3,3,0,0,1-1.81-3.87l1.76-5.58a3.36,3.36,0,0,1-1.56-.15,3,3,0,0,1-1.81-3.88l4-12.68.61-1.69c.71-1.93,3.28-3.62,5.45-4.29.38-.11.75-.21,1.11-.29,1.43-.36,2.14-.53,2.68-2l.94-3.2,1.92.56-1,3.26c-.92,2.57-2.54,3-4.11,3.36l-1,.26c-1.64.51-3.69,1.82-4.15,3.07l-.57,1.57v.17l-.1.14-3.91,12.45a1,1,0,0,0,0,.82,1,1,0,0,0,.57.53,1.81,1.81,0,0,0,1.23-.13,1.41,1.41,0,0,0,.43-.29l1.92-6.1,1.91.6-1.82,5.94a2,2,0,0,1-.19.42l-2.47,7.81a1.1,1.1,0,0,0,0,.82,1,1,0,0,0,1.89-.08l4.78-14.33,1.9.63-5.6,16.93a1,1,0,0,0,1.39,1.3,1,1,0,0,0,.52-.57l5.56-16.45,1.89.62-4.13,12.72a1,1,0,0,0,0,.81,1,1,0,0,0,.57.53,1,1,0,0,0,1.31-.61l4.17-12.64,1.9.61-3,9.62a1,1,0,0,0,0,.83,1,1,0,0,0,.57.53,1,1,0,0,0,1.32-.62l6.63-17.26a4.52,4.52,0,0,0-.88-4.71l-.18-.24c-.1-.13-.22-.25-.33-.37-1-1.1-1.8-2.36-.16-5.62l1.48-3.43,1.83.79-1.5,3.49c-1.17,2.34-.76,2.79-.18,3.41a6,6,0,0,1,.46.54l.17.23c.92,1.22,2.18,2.89,1.19,6.53l-6.66,17.35a3,3,0,0,1-3.87,1.79,3.13,3.13,0,0,1-1-.59l-.14.42a3,3,0,0,1-4.85,1.26l-.38,1.12a3.05,3.05,0,0,1-2.84,2Z" fill="#4c5054"/><polygon points="204.75 108.06 181.99 108.06 186.26 154.42 205.85 154.01 204.75 108.06" fill="#fff"/><polygon points="222.18 214.62 213.46 227.81 186.65 153.98 204.21 147.55 222.18 214.62" fill="#fff"/><polygon points="209.93 215.31 185.43 155.47 185.13 153.94 180.9 107.06 205.7 107.06 208 153.43 222.2 211.12 220.26 211.6 206.01 153.72 206 153.63 203.8 109.06 183.09 109.06 187.12 153.71 187.36 154.89 211.78 214.56 209.93 215.31" fill="#4c5054"/><path d="M210.85,214.93l1.51,3.49c1.74,3.48.33,4-.4,4.94-.92,1.24-2.12,2.52-1.19,5.91l6.62,17.25a2,2,0,1,0,3.8-1.39l-3-9.62,4.17,12.68a2,2,0,0,0,3.81-1.39l-4.13-12.71,5.55,16.47a2,2,0,0,0,2.6,1.21,2,2,0,0,0,1.2-2.59l-5.59-16.94,4.79,14.36a2,2,0,1,0,3.8-1.38l-4.48-14.17,1.82,5.95a2.58,2.58,0,0,0,3.06,1.21,2,2,0,0,0,1.21-2.59l-4-12.63h0l-.64-1.73c-.59-1.63-2.95-3.12-4.79-3.68s-3.56-.48-4.45-2.95l-1-3.26Z" fill="#fff"/><path d="M229.52,252.89a3,3,0,0,1-2.83-2l-.39-1.14a3,3,0,0,1-1,.57,3,3,0,0,1-3.87-1.8l-.15-.45a3.37,3.37,0,0,1-1,.59,3,3,0,0,1-3.88-1.81l-6.62-17.24c-1-3.73.23-5.4,1.15-6.62l.17-.23c.15-.19.31-.37.47-.54.58-.62,1-1.07-.16-3.36l-1.53-3.54,1.84-.79,1.5,3.48c1.62,3.21.84,4.47-.19,5.57-.11.12-.22.24-.32.37l-.18.24c-.82,1.08-1.59,2.11-.85,4.8l6.6,17.16a1,1,0,0,0,1.31.63,1,1,0,0,0,.58-.53,1,1,0,0,0,0-.78l-3-9.67,1.91-.61,4.18,12.67a1,1,0,0,0,1.91-.73l-4.15-12.75,1.9-.62,5.56,16.47a1,1,0,0,0,.52.55,1,1,0,0,0,.78,0,1,1,0,0,0,.58-.53,1,1,0,0,0,0-.78l-5.6-17,1.89-.63,4.79,14.36a1,1,0,0,0,1.31.58,1,1,0,0,0,.57-.53,1,1,0,0,0,0-.78L231,237.74a2.09,2.09,0,0,1-.19-.4l-1.83-6,1.91-.6,1.93,6.11a1.28,1.28,0,0,0,.42.28,1.81,1.81,0,0,0,1.23.13,1,1,0,0,0,.57-.53,1,1,0,0,0,0-.78l-4-12.66-.63-1.71c-.45-1.25-2.5-2.56-4.15-3.07-.34-.1-.68-.18-1-.26-1.56-.39-3.19-.79-4.09-3.3l-1-3.32,1.92-.56.95,3.26c.52,1.45,1.24,1.62,2.67,2,.36.08.73.18,1.11.29,2.17.67,4.74,2.36,5.44,4.29l.59,1.61.11.16v.16L237,235.32a2.92,2.92,0,0,1-.12,2.26,3,3,0,0,1-1.7,1.57,3.38,3.38,0,0,1-1.56.15l1.77,5.62a3,3,0,0,1-1.82,3.83,2.89,2.89,0,0,1-1.15.18,3,3,0,0,1-.14,2.21,3,3,0,0,1-1.7,1.57A3.12,3.12,0,0,1,229.52,252.89Z" fill="#4c5054"/><path d="M304.09,64.46c-15.7-5.34-53.83-6.73-53.83-6.73s-38.12,1.39-53.83,6.73-14.3,14.85-14.3,21v39.57c2.07,2.06,6.39,3.48,11.38,3.48s9.32-1.43,11.38-3.5L206,140.55c.81,1,14.57,18.94,44.29,18.94s43.51-18.38,43.51-17.88l1.86-18.08,6.84,2.28a21.36,21.36,0,0,0,12.14-.53,10.51,10.51,0,0,0,3.78-2.23V85.48C318.39,79.31,319.79,69.78,304.09,64.46Z" fill="#fff"/><path d="M250.26,160.49c-28,0-42.39-16-45-19.21l-.28-.34-1-14a20.45,20.45,0,0,1-10.52,2.55c-5.12,0-9.74-1.45-12.08-3.77l-.3-.3v-40c0-.45,0-.91,0-1.39-.1-6.14-.25-15.41,15-20.58,15.66-5.32,52.55-6.73,54.11-6.78s38.53,1.46,54.19,6.78c15.24,5.17,15.09,14.44,15,20.58,0,.48,0,.94,0,1.39v38l-.3.3a11.7,11.7,0,0,1-4.13,2.46,22.31,22.31,0,0,1-12.71.56l-.1,0-5.66-1.89-1.72,16.84-.95-.05.54.73c-.07.06-.2.2-.39.4C283.08,154.2,267.56,160.49,250.26,160.49ZM207,140.17c2.78,3.38,16.57,18.32,43.31,18.32,16.74,0,31.75-6.07,42.27-17.08l.29-.3,1.94-18.93,8,2.66a20.35,20.35,0,0,0,11.53-.49,10.29,10.29,0,0,0,3.12-1.74V85.48c0-.46,0-.93,0-1.42.1-6.22.23-14-13.63-18.66h0c-15.39-5.22-53.17-6.66-53.55-6.67s-38.08,1.45-53.47,6.67C182.9,70.1,183,77.84,183.12,84.06c0,.49,0,1,0,1.42v39.13c2.06,1.78,6.06,2.92,10.38,2.92,4.54,0,8.74-1.26,10.68-3.21l1.55-1.55Z" fill="#4c5054"/><rect x="162.65" y="276.1" width="6.38" height="2.63" fill="#4c5054"/><rect x="162.09" y="235.2" width="7.5" height="41.73" fill="#4c5054"/><polygon points="165.84 227.55 163.47 234.19 168.25 234.19 165.84 227.55" fill="#fff"/><path d="M169.59,235.21h-7.51l3.75-10.6Zm-4.71-2h2l-1-2.69Z" fill="#4c5054"/><circle cx="118.02" cy="297.65" r="12.98" transform="translate(-198.34 347.03) rotate(-77.24)" fill="#4c5054"/><path d="M115.77,296.54s-12-21.11,1.48-42.47Z" fill="#fff"/><path d="M116.12,300.1,114.38,297c-.13-.22-12.17-21.89,1.5-43.5l2-3.12Zm-.54-42c-7.13,14.12-3.64,27.7-1.18,34.11Z" fill="#4c5054"/><path d="M95.23,320c-.62-14,20.54-23.45,20.54-23.45S109.23,318.76,95.23,320Z" fill="#fff"/><path d="M142.46,294.74c-8.3,9.08-27.21,1.8-27.21,1.8S133,286.84,142.46,294.74Z" fill="#fff"/><path d="M115.25,296.54a44.85,44.85,0,0,1,13.69,32.56Z" fill="#fff"/><path d="M115.25,296.54A44.81,44.81,0,0,1,117,331.82Z" fill="#fff"/><path d="M115.77,296.54S91,285.9,75.44,306.3Z" fill="#fff"/><path d="M115.77,296.54s-16.83-.9-19.24-17.84Z" fill="#fff"/><path d="M143.38,269.58c-.75,17.55-28.13,27-28.13,27S125.82,269.58,143.38,269.58Z" fill="#fff"/><path d="M93.75,321.07l0-1C93.43,314,97,307.8,104.12,302.22a56.06,56.06,0,0,1,10.72-6.59l2-.88-.62,2.07a55.36,55.36,0,0,1-5.12,11.49c-4.6,7.76-10.23,12.14-16.29,12.67Zm19.75-22.54c-5.06,2.7-17.37,10.27-17.8,20.32C105.62,317.11,111.5,303.91,113.5,298.53Z" fill="#4c5054"/><path d="M129.85,300.32a47,47,0,0,1-15-2.84l-2-.78,1.9-1c.75-.41,18.51-9.93,28.33-1.68l.8.67-.7.77C139.77,299.17,134.73,300.32,129.85,300.32Zm-11.94-3.95c5,1.47,16.71,4.12,23-1.52C133.93,290.08,122.63,294.25,117.91,296.37Z" fill="#4c5054"/><path d="M129.94,334.06l-17.24-41,3.19,2.72a45.4,45.4,0,0,1,14,33.32ZM118.4,301.47l9.16,21.78A44.86,44.86,0,0,0,118.4,301.47Z" fill="#4c5054"/><path d="M116.22,336.82,114,292.4l2.07,3.65a45.36,45.36,0,0,1,1.8,36.12Zm.31-34.57,1.15,23.6A44.89,44.89,0,0,0,116.53,302.25Z" fill="#4c5054"/><path d="M72.41,307.93l1.71-2.24c15.83-20.78,41.27-10.18,41.52-10.07l2.76,1.19Zm28-13.23a29.67,29.67,0,0,0-22.76,9.92l34.1-8.25A41,41,0,0,0,100.36,294.7Z" fill="#4c5054"/><path d="M118,297.69l-2.76-.15c-.17,0-17.68-1.15-20.18-18.7l-.39-2.79ZM97.62,281.56c2.59,9.3,10.17,12.43,14.53,13.47Z" fill="#4c5054"/><path d="M113.52,298.19l.79-2a70.07,70.07,0,0,1,7.6-13.7c6.53-9.09,14-13.9,21.47-13.9h1.05l-.05,1.05c-.32,7.51-5.44,14.72-14.8,20.85a70.47,70.47,0,0,1-14,7Zm28.78-27.57c-13.23.9-22.32,18-25.17,24.12C123.38,292.15,140.84,283.79,142.3,270.62Z" fill="#4c5054"/><path d="M159,141.35l-73.85,27a4.65,4.65,0,0,1-3.55-.16,4.57,4.57,0,0,1-2.39-2.62L61.48,116.78l82.57-30.17L161.8,135.4A4.64,4.64,0,0,1,159,141.35Z" fill="#4c5054"/><polygon points="120.62 94.99 116.58 96.46 112.9 86.36 106.02 83.15 88.01 89.71 84.8 96.59 88.48 106.69 84.44 108.16 80.15 96.39 84.87 86.28 106.23 78.51 116.33 83.22 120.62 94.99" fill="#4c5054"/><path d="M150.54,110,71.17,138.9a4.28,4.28,0,0,1-5.5-2.56l-7.6-20.87A4.3,4.3,0,0,1,60.64,110L140,81.07a4.31,4.31,0,0,1,5.51,2.57l7.59,20.87A4.31,4.31,0,0,1,150.54,110Z" fill="#4c5054"/><path d="M117.62,121.33a3.56,3.56,0,0,0-3.25-2.52,11.61,11.61,0,0,0-2.16,1s-.95.53-1.74,1.05-.73,1.24.31,3a4.3,4.3,0,0,0,5.42,1.36C118,124.32,118,123.05,117.62,121.33Z" fill="#fff"/><path d="M110.54,126.11s-1.06.68-.56,2.86.72,2.93.92,2.85.39-.93.53-1.43.17-.77.49-.89,1.45.73,1.76.87.23.19.44.08-.82-2.17-1.63-3.13S111,126,110.54,126.11Z" fill="#fff"/><path d="M131.29,126.86c-1.39-.45-3.91.8-5.87,1.14s-6.25.43-7,.49a1.62,1.62,0,0,1,.24-.61,11.19,11.19,0,0,0,1.41-3l2-1.68a28.57,28.57,0,0,1,4.85-3.4,2.43,2.43,0,0,0,1.35-2.72,1.54,1.54,0,0,0-1.23-1.12c-.08-.24-.16-.47-.26-.7a1.53,1.53,0,0,0-1-.88,1.93,1.93,0,0,0-2.16.94,17.33,17.33,0,0,1-1.8,3c-.42.51-1.59,1.66-2.22,2.32a12.75,12.75,0,0,1-.71-2.78,44.71,44.71,0,0,0-.82-5.65c-.51-2-1.21-3.93-4.6-4.4A16.76,16.76,0,0,0,103,109.43l-.31.12c-1.7.75-4.35,2.17-5.65,4.18-2,3.1-2,4.84-1,6.8s3,5,3.47,6a16,16,0,0,1,.68,1.6,26.93,26.93,0,0,1-3.14-.28,11.48,11.48,0,0,1-2.74-1,1.92,1.92,0,0,0-2.24.72,1.51,1.51,0,0,0-.22,1.35l.26.7a1.55,1.55,0,0,0-.2,1.66,2.43,2.43,0,0,0,2.82,1.15,20.89,20.89,0,0,1,5.27-.75c2.19-.06,2.62-.06,2.71-.06a6,6,0,0,0,2.89,1.2,3.75,3.75,0,0,1,1.27.39,59.93,59.93,0,0,1-5.4,4.53c-1.73,1.07-4.06,1.62-4.8,2.88a1.92,1.92,0,0,0,.18,2.58,1.79,1.79,0,0,0,1.38.82h.32a2,2,0,0,0,1.45,1.59c1.24.26,2.17.1,2.85-1.92a14.74,14.74,0,0,1,3.79-5.58c1.42-1.41,2.43-2.39,2.76-2.7a6.16,6.16,0,0,0,4.19.05l.46-.18c.93-.35,3.1-1.29,3.75-3,.08-.19.13-.4.2-.59.44,0,1.85.09,3.85.21a14.88,14.88,0,0,1,6.53,1.7c1.84,1.06,2.95.57,3.7-.45a1.69,1.69,0,0,0-.21-2.06s0-.05.2-.27a2,2,0,0,0,.82-1.61A2.2,2.2,0,0,0,131.29,126.86Zm-11.47-5.61s2.08-2,2.55-2.6a9.94,9.94,0,0,0,1.48-2.59,1.52,1.52,0,0,1,1.78-1,1.79,1.79,0,0,1,.81,1,3.4,3.4,0,0,1-.12,1.27,2.4,2.4,0,0,0,.3-.9,1,1,0,0,1,1,.92c.08.63,0,1.07-1.92,2.19a29.2,29.2,0,0,0-4.43,3.39l-1,.89a.73.73,0,0,1,0-.3,4,4,0,0,0-.1-1A6,6,0,0,0,120,122C119.85,121.33,119.82,121.25,119.82,121.25Zm-19.37,9.83a29.94,29.94,0,0,0-5.51.57c-2.18.44-2.15.11-2.51-.42a.93.93,0,0,1,.19-1.31l0,0a2.31,2.31,0,0,0,.8.47,3.47,3.47,0,0,1-.92-.87,1.7,1.7,0,0,1-.06-1.29,1,1,0,0,1,1.16-.81.93.93,0,0,1,.36.14,9.72,9.72,0,0,0,2.82,1c.68.1,3.3.24,3.6.27l.1.27a1,1,0,0,0,.21.38h0a9.91,9.91,0,0,0,1.1,1.63Zm4,8.3a11.71,11.71,0,0,0-2.39,4.11c-.4.95-1.19,2-2.47,1.4s-.66-2.49-.69-2.45a3.23,3.23,0,0,0-.34,1,2.08,2.08,0,0,1-1-.2,1.68,1.68,0,0,1-.72-1.94c.19-.83,1.7-1.5,4.26-2.86a32.09,32.09,0,0,0,6-4.94s.32.32.61.59,1,.9,1,.9-2.7,2.62-4.32,4.44Zm12.2-9,0,.1c-.1,0-.19.07-.1.25a1.25,1.25,0,0,1,.1,1.34c-.3.47-.71-.39-.71-.39l-.07,0s.46.83.11,1.09-.64-.67-.64-.67l-.13.05s.64.94.12,1.32-.81-.91-.81-.91l-.24.1s.8,1.16,0,1.5-1-1-1-1l-.33.12s.8,1.15,0,1.49-1-1.12-1-1.12l-.31.12s.56,1.06,0,1.26-.84-1.11-.84-1.11l-.12,0a2.23,2.23,0,0,1,.13.6c0,.31-.17.51-.38.37a2.59,2.59,0,0,1-.45-.91l-.05,0,.08.23c.09.23.09.52-.27.61s-.68-.82-.82-1.17l0-.12s-.91-.73-1.47-1.27-1.13-.31-2.29-.4-2.7-.17-4.06-3.41a.3.3,0,0,0,0-.1l-.06-.15h0l-.39-1.05c-.4-1.3.19-3.28-.62-5.8s-1.56-2.63-1.59-2.43.66,3.31.89,4.62a10.28,10.28,0,0,1,.18,2.07s-3.47-5.1-3-7.19a10.25,10.25,0,0,1,2.94-5.53,29.86,29.86,0,0,1,4.5-3,16.65,16.65,0,0,1,5.21-1.18c3-.13,7,1.43,7.7,3a14,14,0,0,1,1.08,4.41c.26,2,.36,2.6.36,2.6s-3.28-4.73-3.7-5.37-.9-.52-.73.34a8.85,8.85,0,0,0,2.36,4.13c1.59,1.67,3,3,3.27,5.18s-1.09,3.53-1.92,4.67a5,5,0,0,0-.8,2.55Zm15.33-.59a1.87,1.87,0,0,1-.57.76,4,4,0,0,0-.9-.5s1.69,1,1.11,2.31-1.86,1-2.79.57a11.76,11.76,0,0,0-4.5-1.51c-2.35-.28-5.94-.48-6.13-.49a17.25,17.25,0,0,0,.21-1.76,43,43,0,0,0,7.76-.67c2.82-.66,4.39-1.16,5.09-.65a1.67,1.67,0,0,1,.71,1.94Z" fill="#fff"/><path d="M107,122.21c-.91.13-2,.36-2,.36a13.18,13.18,0,0,0-2.31.64,3.56,3.56,0,0,0-.77,4.05c.84,1.54,1.65,2.51,3.61,2a4.31,4.31,0,0,0,3.18-4.59C108.34,122.67,107.9,122.09,107,122.21Z" fill="#fff"/><path d="M373.74,242.53l-9.53,7.52a2.86,2.86,0,0,1-4-4l7.52-9.53c1.12-1.12,3.94-.11,5.05,1S374.86,241.42,373.74,242.53Z" fill="#4c5054"/><circle cx="354.96" cy="255.26" r="17.59" transform="translate(95.18 606.92) rotate(-89.27)" fill="#4c5054"/><path d="M355,270.17a14.92,14.92,0,1,1,14.91-14.91A14.93,14.93,0,0,1,355,270.17Z" fill="#fff"/><path d="M365.41,281.72a16,16,0,0,1-12.51-6,1.1,1.1,0,0,1,1.72-1.37,13.81,13.81,0,0,0,19.64,2,1.1,1.1,0,1,1,1.42,1.68A16,16,0,0,1,365.41,281.72Z" fill="#cbd0d1"/><path d="M379.42,271.91a1.06,1.06,0,0,1-.38-.07,1.09,1.09,0,0,1-.65-1.41,13.81,13.81,0,0,0-4.48-15.6,1.1,1.1,0,1,1,1.36-1.74,16,16,0,0,1,5.19,18.1A1.12,1.12,0,0,1,379.42,271.91Z" fill="#cbd0d1"/><path d="M353.63,247.93a3.17,3.17,0,1,1-3.17-3.18A3.17,3.17,0,0,1,353.63,247.93Z" fill="#fff"/><circle cx="384.04" cy="275.37" r="2.44" fill="#cbd0d1"/><path d="M388.82,280.8a1.88,1.88,0,1,1-1.88-1.88A1.89,1.89,0,0,1,388.82,280.8Z" fill="#cbd0d1"/><path d="M142.08,234.13a4.12,4.12,0,0,1-5.27,2.49l-43-15.6a4.15,4.15,0,0,1-2.49-5.29l5.57-15.52a4.12,4.12,0,0,1,5.28-2.49l43.07,15.61c1.77.63,3.7,1.89,2.85,4.25Z" fill="#fff"/><path d="M138.19,237.86a5,5,0,0,1-1.72-.3l-43-15.6a5.16,5.16,0,0,1-3.1-6.56l5.58-15.53a5.13,5.13,0,0,1,6.55-3.09l43.08,15.61a5.55,5.55,0,0,1,3.39,2.62,3.7,3.7,0,0,1,.07,2.91l-6,16.55A5.12,5.12,0,0,1,138.19,237.86Zm-37.45-39.38a3.13,3.13,0,0,0-2.95,2.07l-5.57,15.52a3.15,3.15,0,0,0,1.89,4l43,15.6a3.13,3.13,0,0,0,4-1.89l6-16.55a1.71,1.71,0,0,0,0-1.37,3.81,3.81,0,0,0-2.26-1.6l-43.07-15.61A3.22,3.22,0,0,0,100.74,198.48Z" fill="#4c5054"/><rect x="107" y="197.96" width="23.88" height="38.43" transform="translate(-125.65 255.74) rotate(-70.25)" fill="#4c5054"/><path d="M96.71,213.62a1,1,0,0,1-.35-.06,1,1,0,0,1-.59-1.29L98.1,206a1,1,0,0,1,1.88.7L97.64,213A1,1,0,0,1,96.71,213.62Z" fill="#4c5054"/><path d="M140.6,228.27a3.09,3.09,0,1,1,3.09-3.09A3.09,3.09,0,0,1,140.6,228.27Zm0-4.17a1.09,1.09,0,1,0,1.09,1.08A1.08,1.08,0,0,0,140.6,224.1Z" fill="#4c5054"/><rect x="122.39" y="221.92" width="0.2" height="0.53" transform="translate(-126.84 269.15) rotate(-71.8)" fill="#d60000"/><rect x="123.76" y="219.45" width="0.15" height="0.34" transform="translate(-123.47 268.67) rotate(-71.8)" fill="#d60000"/><rect x="112" y="216.77" width="0.14" height="0.3" transform="translate(-128.99 255.63) rotate(-71.8)" fill="#60bcd8"/><rect x="129.05" y="223.02" width="0.2" height="0.54" transform="translate(-123.31 276.24) rotate(-71.8)" fill="#60bcd8"/><path d="M122.53,213.65l-.27-.1.17-.48.27.1.33-.87-.18-.06.15-.4.18.06.13-.35-1-.36.07-.19,1,.36,0-.11.93.34,0-.11-.93-.35,0-.1L113,207.13l-.07.18.94.35-.05.11-.9-.34,0,.12-1-.38-.07.19,1,.37-.1.27-.11,0-.13.36.17.06-.32.88-.26-.1-.2.51.27.1-.17.45,1.23.46,0,.13-1.28-.47-.1.29.56.2-.1.25-.55-.21-.29.76,1.09.41-.13.35-1.09-.41-.21.58-.09,0,0,.1c-.09.24.15.4.26.58a.13.13,0,0,1,0,.12c-.22.13-.49.12-.62.36l-.08.22.64.24-.12.31-.64-.24-.16.44-.77-.29-.07.19.76.29-.29.78-.13-.06-.24.63.14.05,0,.13.59.22-.07.19-.6-.22-.11.3-.28-.11-.11.27.29.11-.13.35,10.44,3.89.13-.36-.29-.1.1-.27.29.1.11-.29.59.22.07-.2-.59-.21,0-.13-.15,0,.23-.63.15.06.29-.78-.77-.29.08-.19.76.29.17-.44.63.24.12-.32-.64-.23.2-.53c.08-.22.35-.2.53-.31s-.08-.35-.12-.52l.09,0a.31.31,0,0,1,0-.25l.13-.36,1.09.4.13-.35-1.07-.4.28-.76.55.21.09-.25-.55-.2.11-.29,1.23.46,0-.13-1.23-.46Z" fill="#d60000"/><path d="M124.22,225.21l-.14-.05.23-.62.14.05.29-.78-.76-.28.07-.19.76.28.17-.43.64.24.12-.33-.64-.24.19-.51c.1-.26.42-.23.56-.43s-.09-.26-.14-.4l.1,0a.39.39,0,0,1,0-.26l.13-.37,1.1.41.12-.34-1.09-.41.29-.76.55.2.09-.23-.55-.21.1-.29,1.22.46,0-.13-1.22-.46.17-.45-.24-.09.17-.45.27.1.33-.88-.18-.06.13-.36.18.07.14-.36-1-.38.06-.16,1,.37.05-.12.92.34,0-.1-.93-.35.08-.19-10.48-3.9-.07.19.93.34,0,.11-.9-.34,0,.13-1-.37-.07.19,1,.36-.14.36-.17-.07-.13.33.18.07-.33.87-.26-.1-.17.48.27.1-.17.45,1.23.46-.05.13-1.24-.46-.11.29.55.2-.09.24-.54-.21-.29.77,1.09.41-.13.34-1.09-.41-.22.58-.08,0a.49.49,0,0,0,0,.11c0,.19.18.3.27.47a.1.1,0,0,1,0,.09c-.19.17-.52.15-.63.42l-.1.28.63.24-.12.32-.61-.23-.16.44-.77-.29-.07.2.77.28-.29.78-.18-.07-.22.61.15.05-.05.13.58.22-.06.18-.56-.21-.12.31-.28-.11-.1.26.29.11-.14.36,10.48,3.9.13-.36-.28-.11.1-.26.28.1.11-.3.6.22.07-.18-.6-.23Z" fill="#60bcd8"/><path d="M124.63,216.19l-.26-.1.17-.46.26.1.33-.88-.17-.06.15-.38.17.06.13-.35-1-.36.07-.2,1,.37,0-.11.93.34,0-.11-.93-.35.07-.18-10.48-3.9-.06.18.93.35,0,.11-.91-.34,0,.12-1-.36-.07.19,1,.36-.13.35-.2-.07-.13.35.18.07-.33.87-.26-.1-.17.47.26.09-.17.46,1.23.46,0,.13-1.21-.45-.11.29.56.21-.09.24-.56-.21-.29.77,1.1.41-.12.34-1.1-.41-.23.62-.09,0a.49.49,0,0,0,0,.11c-.08.21.17.35.27.53,0,0,0,.07,0,.08-.2.18-.57.15-.66.43l-.08.22.64.24L113,217l-.65-.24-.16.44-.76-.28-.07.18.76.28-.29.78-.08,0-.23.63.13,0,0,.12.59.23-.07.19-.59-.22-.12.32-.32-.12-.09.26.27.11-.13.36,10.47,3.9.14-.36-.29-.11.1-.26.28.11L122,223l.59.22.07-.19-.59-.22,0-.12-.14,0,.23-.63.14,0,.29-.78-.77-.28.07-.19.77.29.16-.44.65.24.12-.32-.65-.24.2-.52c.09-.26.4-.23.55-.42s-.1-.28-.16-.41l.1,0a.5.5,0,0,1,0-.17l0-.07.13-.36,1.1.41.13-.34-1.14-.43.28-.77.56.21.09-.24-.56-.2.11-.3,1.23.46.05-.13-1.23-.46Z" fill="#fff"/><rect x="203.89" y="95.37" width="2" height="29.66" fill="#4c5054"/><rect x="294.63" y="95.37" width="2" height="27.66" fill="#4c5054"/><g clip-path="url(#c)"><path d="M205,110.12h-10.5a23.33,23.33,0,0,1-21.62-14.8l7.45-2.89a15.29,15.29,0,0,0,14.17,9.69H205Z" fill="#4c5054"/><path d="M194.53,127.71a34.61,34.61,0,0,1-18-5.62l4.58-6.56-2.29,3.28,2.28-3.29a26.65,26.65,0,0,0,13.47,4.19c7,0,9.55-1.42,9.58-1.43a.92.92,0,0,0-.15.09L208.5,125C207.83,125.42,204,127.71,194.53,127.71Z" fill="#4c5054"/><path d="M284.87,79.38H214.35c-11.36,0-13.74-7.47-13.74-13.73a13.66,13.66,0,0,1,6.57-11.72l4.18,6.82a5.72,5.72,0,0,0-2.75,4.9c0,4.87,1.5,5.73,5.74,5.73h70.52A5.73,5.73,0,0,0,287,60.32l3-7.43a13.73,13.73,0,0,1-5.08,26.49Z" fill="#4c5054"/><path d="M250.37,104A101.9,101.9,0,0,1,203.06,92.1a23,23,0,0,1-17.1-8,25.9,25.9,0,0,1-6.06-16.94h8c0,8.16,5.09,16.94,16.26,16.94h1.12l.95.58A94.4,94.4,0,0,0,250.37,96a98.7,98.7,0,0,0,44.91-11.32l.93-.55h1.09C305.79,84.12,312,77,312,67.18h8c0,13.82-9.2,24.34-21.58,24.92A106.51,106.51,0,0,1,250.37,104Z" fill="#4c5054"/><path d="M250.84,119.4c-35.5,0-50.12-10.3-50.72-10.74l4.7-6.48c.1.08,13.47,9.22,46,9.22,32.34,0,44.29-9,44.41-9.11l5,6.23C299.71,109,286.46,119.4,250.84,119.4Z" fill="#4c5054"/><path d="M250.84,137c-22.54,0-48-10.91-49.11-11.37l3.18-7.35c.24.11,25.07,10.72,45.93,10.72s45.16-11.39,45.41-11.51l3.42,7.23C298.61,125.25,273.44,137,250.84,137Z" fill="#4c5054"/><path d="M250.1,152c-23.42,0-49.26-14.66-50.35-15.28l4-6.94c.25.14,25.11,14.22,46.38,14.22s43.7-13.38,43.92-13.52l4.13,6.85C297.16,137.92,273.57,152,250.1,152Z" fill="#4c5054"/><path d="M306.58,110.12H295.89v-8h10.69A15.22,15.22,0,0,0,321.46,90l7.84,1.61A23.26,23.26,0,0,1,306.58,110.12Z" fill="#4c5054"/><path d="M306.47,127.18c-9.79,0-14.48-3.34-15-3.72l4.84-6.38h0s3.18,2.1,10.15,2.1A26.77,26.77,0,0,0,319.93,115l4.58,6.56A34.61,34.61,0,0,1,306.47,127.18Z" fill="#4c5054"/></g><path d="M250.26,22.26c-24.51,0-44.38,23.47-44.38,52.43A60.07,60.07,0,0,0,210.51,98c-1.51,10.17,1.4,16.62,1.4,16.62,1.87-3.74,6.35-3.62,6.35-3.62-4.47,10.31-.53,16.11-.53,16.11,1.67-7.91,9.93-7.31,9.93-7.31-5.06,15.79,1.93,20.62,1.93,20.62,3.54-12.06,17.89-13.42,17.89-13.42h0c.92.07,1.85.12,2.79.12,24.51,0,44.39-23.48,44.39-52.43S274.77,22.26,250.26,22.26Z" fill="#fff"/><path d="M230.16,142l-1.14-.78c-.3-.21-7.15-5.16-2.72-20.42-2.19.2-6.49,1.26-7.59,6.48l-.48,2.3-1.32-1.94c-.17-.24-3.8-5.77-.2-15.49a5.61,5.61,0,0,0-3.91,2.89l-.94,1.88-.86-1.91c-.13-.28-3-6.72-1.52-16.91a60.67,60.67,0,0,1-4.6-23.45c0-29.46,20.35-53.43,45.38-53.43s45.39,24,45.39,53.43-20.36,53.43-45.39,53.43c-.84,0-1.71,0-2.73-.11-.84.1-13.77,1.76-17,12.7Zm-2.82-23.23h.39l1.27.09-.39,1.21c-3.51,11-1,16.36.57,18.44a19.19,19.19,0,0,1,10.26-10.27,28.28,28.28,0,0,1,6.12-2l-.41-.47,2.4.17c1,.07,1.89.11,2.71.11,23.92,0,43.39-23.07,43.39-51.43s-19.47-51.43-43.39-51.43-43.38,23.07-43.38,51.43a58.75,58.75,0,0,0,4.55,22.93l.11.26,0,.28a34,34,0,0,0,.72,14.3,8.76,8.76,0,0,1,6.07-2.45l1.48,0-.59,1.35c-2.63,6.07-2.22,10.45-1.55,12.9C220.14,119.17,225.81,118.81,227.34,118.81Z" fill="#4c5054"/><polygon points="236.56 395.01 177.93 395.01 177.93 327.26 178.93 327.26 178.93 394.01 236.56 394.01 236.56 395.01" fill="#d60000"/><polygon points="172.34 360.37 178.27 351.51 184.34 360.47 172.34 360.37" fill="#d60000"/><rect x="114.32" y="414.68" width="87.03" height="24.27" rx="12.01" fill="#edd6d6"/><path d="M189.34,439.45h-63a12.53,12.53,0,0,1-12.51-12.51v-.25a12.53,12.53,0,0,1,12.51-12.51h63a12.52,12.52,0,0,1,12.51,12.51v.25A12.52,12.52,0,0,1,189.34,439.45Zm-63-24.27a11.53,11.53,0,0,0-11.51,11.51v.25a11.53,11.53,0,0,0,11.51,11.51h63a11.53,11.53,0,0,0,11.51-11.51v-.25a11.52,11.52,0,0,0-11.51-11.51Z" fill="#d60000"/><polygon points="100.97 376.74 99.97 376.74 99.97 375.13 178.26 375.13 178.26 376.13 100.97 376.13 100.97 376.74" fill="#d60000"/><polygon points="158.52 414.77 157.52 414.77 157.52 404.03 196.44 404.03 196.55 394.92 197.55 394.94 197.42 405.03 158.52 405.03 158.52 414.77" fill="#d60000"/><polygon points="218.4 400.74 209.44 394.96 218.29 388.74 218.4 400.74" fill="#d60000"/><text transform="translate(576.36 189.86)" font-size="18" fill="#0071bc" font-family="Arial-BoldMT, Arial" font-weight="700">Admin</text><g style="isolation:isolate"><text transform="translate(134.14 431.44)" font-size="14" fill="#d60000" font-family="Arial-BoldMT, Arial" font-weight="700" style="isolation:isolate">API key</text></g><path d="M688.71,335.33H555.08V162H688.71Zm-131.63-2H686.71V164H557.08Z" fill="#0071bc"/><rect x="534.46" y="135.4" width="175.16" height="27.63" fill="#d0f1f7"/><path d="M710.62,164H533.46V134.4H710.62Zm-175.16-2H708.62V136.4H535.46Z" fill="#0071bc"/><rect x="627.22" y="148.11" width="13.34" height="2" fill="#0071bc"/><rect x="646.88" y="148.11" width="13.34" height="2" fill="#0071bc"/><rect x="666.39" y="148.11" width="13.34" height="2" fill="#0071bc"/><rect x="686.05" y="148.11" width="13.34" height="2" fill="#0071bc"/><rect x="577.16" y="204.66" width="21.9" height="2.89" fill="#0071bc"/><rect x="577.16" y="215.69" width="89.29" height="1" fill="#0071bc"/><rect x="577.16" y="222.47" width="89.29" height="1" fill="#0071bc"/><rect x="577.16" y="228.5" width="89.29" height="1" fill="#0071bc"/><rect x="577.16" y="234.45" width="75.91" height="1" fill="#0071bc"/><rect x="577.16" y="247.66" width="21.9" height="2.89" fill="#0071bc"/><rect x="577.16" y="258.69" width="89.29" height="1" fill="#0071bc"/><rect x="577.16" y="265.47" width="89.29" height="1" fill="#0071bc"/><rect x="577.16" y="271.5" width="89.29" height="1" fill="#0071bc"/><rect x="577.16" y="277.45" width="75.91" height="1" fill="#0071bc"/><rect x="577.16" y="290.66" width="21.9" height="2.89" fill="#0071bc"/><rect x="577.16" y="301.69" width="89.29" height="1" fill="#0071bc"/><rect x="577.16" y="308.47" width="89.29" height="1" fill="#0071bc"/><rect x="577.16" y="314.5" width="89.29" height="1" fill="#0071bc"/><rect x="577.16" y="320.45" width="75.91" height="1" fill="#0071bc"/><path d="M710.62,335.33H533.46V162H710.62Zm-175.16-2H708.62V164H535.46Z" fill="#0071bc"/><polygon points="375.86 217.83 325.43 217.83 325.43 216.83 374.86 216.83 374.86 130.79 442.94 130.79 442.94 98.27 443.94 98.27 443.94 131.79 375.86 131.79 375.86 217.83" fill="#cbd0d1"/><rect x="19.95" y="363.85" width="129.8" height="24.27" rx="12.13" fill="#edd6d6"/><path d="M137.62,388.62H32.08a12.64,12.64,0,0,1,0-25.27H137.62a12.64,12.64,0,0,1,0,25.27ZM32.08,364.35a11.64,11.64,0,0,0,0,23.27H137.62a11.64,11.64,0,0,0,0-23.27Z" fill="#d60000"/><text transform="translate(43.58 381.09)" font-size="14" fill="#d60000" font-family="Arial-BoldMT, Arial" font-weight="700" style="isolation:isolate">Sensitive data</text><path d="M32.24,377.81v-.66a3.29,3.29,0,0,1,.1-.82,2.69,2.69,0,0,1,.28-.71,4.43,4.43,0,0,1,.49-.65c.23-.23.48-.44.73-.65s.47-.37.64-.53a2.3,2.3,0,0,0,.42-.46,1.58,1.58,0,0,0,.23-.47,1.85,1.85,0,0,0,.07-.58,1.13,1.13,0,0,0-.34-.84,1.47,1.47,0,0,0-1-.33,4,4,0,0,0-1.32.26q-.75.28-1.47.63l-.91-2q.41-.22.84-.42t.93-.36a8.56,8.56,0,0,1,1-.24,6,6,0,0,1,2.64.13,3.47,3.47,0,0,1,1.24.63,2.8,2.8,0,0,1,.78,1,3.21,3.21,0,0,1,.27,1.36,3.34,3.34,0,0,1-.12,1,2.65,2.65,0,0,1-.37.82,3.29,3.29,0,0,1-.61.73c-.25.24-.54.49-.86.75s-.46.36-.62.51a3.52,3.52,0,0,0-.36.41,1.69,1.69,0,0,0-.19.41,2.81,2.81,0,0,0,0,.49v.59ZM32,380.86a2.16,2.16,0,0,1,.12-.71,1.29,1.29,0,0,1,.33-.47,1.45,1.45,0,0,1,.51-.26,2.48,2.48,0,0,1,1.21,0,1.64,1.64,0,0,1,.49.26,1.21,1.21,0,0,1,.34.47,1.74,1.74,0,0,1,.12.71,1.55,1.55,0,0,1-.12.68,1.14,1.14,0,0,1-.34.47,1.21,1.21,0,0,1-.49.28,2.26,2.26,0,0,1-1.21,0,1.17,1.17,0,0,1-.51-.28,1.22,1.22,0,0,1-.33-.47,1.91,1.91,0,0,1-.12-.68Z" fill="#d60000"/><path d="M431.93,225.7a22.75,22.75,0,0,0-2.17,2.76,16.82,16.82,0,0,0,28.51,17.87,22.32,22.32,0,0,0,1.54-3.15c8.24-19.19,15.88-28.6,15.88-28.6a14.73,14.73,0,1,0-25-15.64.08.08,0,0,1,0,0C450.33,199.63,445.15,210.44,431.93,225.7Z" fill="#4c5054"/><path d="M436.43,249.51a14.31,14.31,0,0,0,19.7-4.52,18.65,18.65,0,0,0,1.3-2.65l.06-.16h0a11,11,0,0,1-2.8-4.94c-1-3.75,4-12.28,7.12-15.07,1.35-1.22,8.5-3.77,11.81-9a12.21,12.21,0,0,0-20.69-13c-3.3,5.27-2.47,12.82-3,14.57-1.17,4-6.66,12.21-10.46,13a10.92,10.92,0,0,1-5.66-.36h0l-.11.13a18.77,18.77,0,0,0-1.82,2.31A14.31,14.31,0,0,0,436.43,249.51Z" fill="#4c5054"/><path d="M436.43,249.51a14.31,14.31,0,0,0,19.7-4.52,18.65,18.65,0,0,0,1.3-2.65l.06-.16h0a11,11,0,0,1-2.8-4.94c-.59-2.28,1-6.3,3.06-9.75a24.78,24.78,0,0,1,4.06-5.32,18.3,18.3,0,0,1,2.73-1.61,20.71,20.71,0,0,0-14.34-9,18.69,18.69,0,0,1-.25,3.16,24.9,24.9,0,0,1-3,6c-2.21,3.34-5.13,6.54-7.44,7a10.92,10.92,0,0,1-5.66-.36h0l-.11.13a18.77,18.77,0,0,0-1.82,2.31A14.31,14.31,0,0,0,436.43,249.51Z" fill="#fff"/><path d="M440.58,223.09l17.81,11.17a.82.82,0,0,1,.27,1.15.84.84,0,0,1-1.16.27l-17.82-11.16a.84.84,0,0,1-.26-1.16A.83.83,0,0,1,440.58,223.09Z" fill="#fff"/><path d="M457.94,237.31a2.32,2.32,0,0,1-1.24-.36l-17.81-11.16a2.34,2.34,0,1,1,2.48-4L459.19,233a2.34,2.34,0,0,1-.72,4.27A2.39,2.39,0,0,1,457.94,237.31Z" fill="#4c5054"/><path d="M444.07,217.51l17.82,11.16a.84.84,0,0,1-.89,1.43l-17.82-11.17a.84.84,0,1,1,.89-1.42Z" fill="#fff"/><path d="M461.44,231.73a2.41,2.41,0,0,1-1.24-.36L442.38,220.2a2.27,2.27,0,0,1-1-1.46,2.31,2.31,0,0,1,.29-1.76,2.35,2.35,0,0,1,1.46-1,2.3,2.3,0,0,1,1.77.3l17.82,11.16a2.36,2.36,0,0,1,.74,3.23,2.32,2.32,0,0,1-1.46,1A2.39,2.39,0,0,1,461.44,231.73Z" fill="#4c5054"/><path d="M440.75,194.58a.83.83,0,0,0-1,.1,5.61,5.61,0,0,0-1.53,5.07c.44,2.21,2.58,4,4.64,5.77,3.2,2.71,5.05,4.53,3.79,6.87a.84.84,0,0,0,1.48.8c2-3.72-1.29-6.5-4.18-8.95-1.84-1.56-3.75-3.18-4.08-4.82a4,4,0,0,1,1-3.51.83.83,0,0,0,.05-1.19Z" fill="#fff"/><path d="M447.37,215.13a2.34,2.34,0,0,1-2.06-3.44c.61-1.15-.09-2.19-3.44-5-2.26-1.92-4.6-3.9-5.14-6.62a7,7,0,0,1,2-6.48,2.35,2.35,0,0,1,2.83-.26h0a2.82,2.82,0,0,1,.46.38,2.34,2.34,0,0,1-.12,3.32,2.49,2.49,0,0,0-.57,2.12c.23,1.12,2.09,2.7,3.58,4,3,2.54,7.09,6,4.54,10.8A2.37,2.37,0,0,1,447.37,215.13Z" fill="#4c5054"/><path d="M485,209.24l-.05,0a.84.84,0,0,0-1.14.35A26.55,26.55,0,0,1,480,215a19.25,19.25,0,0,1-7.45,5.28,23.45,23.45,0,0,1-3,.82,14.86,14.86,0,0,0-5.22,1.92.85.85,0,0,0-.23,1.17.84.84,0,0,0,1.17.23,13.41,13.41,0,0,1,4.66-1.68,25,25,0,0,0,3.19-.88,20.88,20.88,0,0,0,8.1-5.72,27.85,27.85,0,0,0,4-5.8A.84.84,0,0,0,485,209.24Z" fill="#fff"/><path d="M464.84,226.07a2.32,2.32,0,0,1-.46,0,2.36,2.36,0,0,1-1.85-2.75,2.34,2.34,0,0,1,1-1.49,16.08,16.08,0,0,1,5.72-2.15,22.18,22.18,0,0,0,2.79-.75,17.92,17.92,0,0,0,6.87-4.89,24.9,24.9,0,0,0,3.57-5.15,2.35,2.35,0,0,1,3.17-1l.14.08h0a2.35,2.35,0,0,1,.83,3.08,29.94,29.94,0,0,1-4.26,6.11,22.36,22.36,0,0,1-8.68,6.11,25.4,25.4,0,0,1-3.39.94,12.05,12.05,0,0,0-4.15,1.47A2.33,2.33,0,0,1,464.84,226.07Z" fill="#4c5054"/><path d="M440.58,223.09l17.81,11.17a.82.82,0,0,1,.27,1.15.84.84,0,0,1-1.16.27l-17.82-11.16a.84.84,0,0,1-.26-1.16A.83.83,0,0,1,440.58,223.09Z" fill="#fff"/><path d="M444.07,217.51l17.82,11.16a.84.84,0,0,1-.89,1.43l-17.82-11.17a.84.84,0,1,1,.89-1.42Z" fill="#fff"/><path d="M440.75,194.58a.83.83,0,0,0-1,.1,5.61,5.61,0,0,0-1.53,5.07c.44,2.21,2.58,4,4.64,5.77,3.2,2.71,5.05,4.53,3.79,6.87a.84.84,0,0,0,1.48.8c2-3.72-1.29-6.5-4.18-8.95-1.84-1.56-3.75-3.18-4.08-4.82a4,4,0,0,1,1-3.51.83.83,0,0,0,.05-1.19Z" fill="#fff"/><path d="M485,209.24l-.05,0a.84.84,0,0,0-1.14.35A26.55,26.55,0,0,1,480,215a19.25,19.25,0,0,1-7.45,5.28,23.45,23.45,0,0,1-3,.82,14.86,14.86,0,0,0-5.22,1.92.85.85,0,0,0-.23,1.17.84.84,0,0,0,1.17.23,13.41,13.41,0,0,1,4.66-1.68,25,25,0,0,0,3.19-.88,20.88,20.88,0,0,0,8.1-5.72,27.85,27.85,0,0,0,4-5.8A.84.84,0,0,0,485,209.24Z" fill="#fff"/><path d="M455.26,271.77a22.92,22.92,0,0,0-3.36,1,16.82,16.82,0,0,0,12.79,31.12,22.26,22.26,0,0,0,3.09-1.67c17.86-10.81,29.55-14,29.55-14a14.73,14.73,0,1,0-11.2-27.24l0,0C485.4,261.27,474.89,267.05,455.26,271.77Z" fill="#4c5054"/><path d="M444.78,293.32a14.32,14.32,0,0,0,18.66,7.79,19.43,19.43,0,0,0,2.59-1.4l.15-.09h0a10.93,10.93,0,0,1,.59-5.65c1.4-3.61,10.42-7.64,14.55-8.11,1.82-.21,9.11,1.88,14.87-.49a12.2,12.2,0,0,0-9.28-22.57c-5.76,2.37-9.47,9-10.91,10.11-3.27,2.58-12.51,6.06-16.05,4.48a11,11,0,0,1-4.4-3.6h0l-.17,0a19.88,19.88,0,0,0-2.82.82A14.31,14.31,0,0,0,444.78,293.32Z" fill="#4c5054"/><path d="M445.07,293.75a14.31,14.31,0,0,0,18.67,7.78,17.72,17.72,0,0,0,2.58-1.4l.15-.08h0a11,11,0,0,1,.59-5.64c.85-2.2,4.5-4.54,8.16-6.15a25.08,25.08,0,0,1,6.4-2,18.81,18.81,0,0,1,3.16.28,20.74,20.74,0,0,0-6.44-15.65,18.06,18.06,0,0,1-2.05,2.43,24.64,24.64,0,0,1-5.92,3.1c-3.75,1.43-8,2.34-10.13,1.37a11,11,0,0,1-4.39-3.59h0l-.17,0a18.64,18.64,0,0,0-2.82.83A14.32,14.32,0,0,0,445.07,293.75Z" fill="#fff"/><path d="M463.82,274.67l8,19.45a.84.84,0,0,1-.45,1.1.85.85,0,0,1-1.1-.46l-8-19.45a.83.83,0,0,1,.46-1.09A.84.84,0,0,1,463.82,274.67Z" fill="#fff"/><path d="M471,296.78a2.35,2.35,0,0,1-2.17-1.45l-8-19.45a2.36,2.36,0,0,1,0-1.79,2.28,2.28,0,0,1,1.27-1.26,2.32,2.32,0,0,1,1.79,0,2.28,2.28,0,0,1,1.26,1.27l8,19.45a2.34,2.34,0,0,1-2.16,3.23Z" fill="#4c5054"/><path d="M469.91,272.17l8,19.44a.85.85,0,0,1-.46,1.1.84.84,0,0,1-1.1-.46l-8-19.44a.85.85,0,0,1,.46-1.1A.84.84,0,0,1,469.91,272.17Z" fill="#fff"/><path d="M477.13,294.28a2.17,2.17,0,0,1-.9-.19,2.33,2.33,0,0,1-1.27-1.27l-8-19.44a2.34,2.34,0,0,1,0-1.8,2.37,2.37,0,0,1,1.27-1.26,2.36,2.36,0,0,1,3.06,1.28l8,19.44a2.35,2.35,0,0,1-2.16,3.24Z" fill="#4c5054"/><path d="M495.66,303.94a.86.86,0,0,1-.59.84,5.6,5.6,0,0,1-5.17-1.19c-1.7-1.48-2.21-4.23-2.71-6.89-.77-4.12-1.43-6.62-4.09-6.69a.85.85,0,0,1,0-1.69c4.21.12,5,4.34,5.69,8.07.45,2.38.91,4.84,2.17,5.93a3.88,3.88,0,0,0,3.55.85.85.85,0,0,1,1.06.55A2.07,2.07,0,0,1,495.66,303.94Z" fill="#fff"/><path d="M493.62,306.49a7.21,7.21,0,0,1-4.7-1.77c-2.1-1.82-2.66-4.83-3.21-7.74-.8-4.31-1.35-5.44-2.65-5.47a2.35,2.35,0,0,1,.06-4.69h.06c5.43.15,6.42,5.44,7.14,9.29.36,1.93.81,4.33,1.67,5.08a2.46,2.46,0,0,0,2.12.55,2.35,2.35,0,0,1,2.94,1.53,2.43,2.43,0,0,1,.1.59v0a2.36,2.36,0,0,1-1.64,2.33A6.38,6.38,0,0,1,493.62,306.49Z" fill="#4c5054"/><path d="M499.18,276.68l0,.05a.84.84,0,0,1-1.19.07,26.12,26.12,0,0,0-5.45-3.8,19.28,19.28,0,0,0-8.82-2.37,22.58,22.58,0,0,0-3.08.26,14.63,14.63,0,0,1-5.56,0,.85.85,0,0,1-.62-1,.84.84,0,0,1,1-.62,13.35,13.35,0,0,0,5,0,23.3,23.3,0,0,1,3.3-.28,20.81,20.81,0,0,1,9.58,2.55,28.44,28.44,0,0,1,5.8,4A.85.85,0,0,1,499.18,276.68Z" fill="#fff"/><path d="M498.51,278.51a2.37,2.37,0,0,1-1.56-.59,24.58,24.58,0,0,0-5.14-3.59,17.8,17.8,0,0,0-8.13-2.2,25.13,25.13,0,0,0-2.83.24,16.34,16.34,0,0,1-6.16,0,2.36,2.36,0,0,1-1.73-2.83,2.32,2.32,0,0,1,1.05-1.45,2.36,2.36,0,0,1,1.78-.27,12.07,12.07,0,0,0,4.39-.07,26,26,0,0,1,3.47-.29h0A22.39,22.39,0,0,1,494,270.17a28.8,28.8,0,0,1,6.11,4.25,2.35,2.35,0,0,1,.31,3.18l-.14.15a2.29,2.29,0,0,1-1.58.76Z" fill="#4c5054"/><path d="M463.82,274.67l8,19.45a.84.84,0,0,1-.45,1.1.85.85,0,0,1-1.1-.46l-8-19.45a.83.83,0,0,1,.46-1.09A.84.84,0,0,1,463.82,274.67Z" fill="#fff"/><path d="M469.91,272.17l8,19.44a.85.85,0,0,1-.46,1.1.84.84,0,0,1-1.1-.46l-8-19.44a.85.85,0,0,1,.46-1.1A.84.84,0,0,1,469.91,272.17Z" fill="#fff"/><path d="M495.66,303.94a.86.86,0,0,1-.59.84,5.6,5.6,0,0,1-5.17-1.19c-1.7-1.48-2.21-4.23-2.71-6.89-.77-4.12-1.43-6.62-4.09-6.69a.85.85,0,0,1,0-1.69c4.21.12,5,4.34,5.69,8.07.45,2.38.91,4.84,2.17,5.93a3.88,3.88,0,0,0,3.55.85.85.85,0,0,1,1.06.55A2.07,2.07,0,0,1,495.66,303.94Z" fill="#fff"/><path d="M499.18,276.68l0,.05a.84.84,0,0,1-1.19.07,26.12,26.12,0,0,0-5.45-3.8,19.28,19.28,0,0,0-8.82-2.37,22.58,22.58,0,0,0-3.08.26,14.63,14.63,0,0,1-5.56,0,.85.85,0,0,1-.62-1,.84.84,0,0,1,1-.62,13.35,13.35,0,0,0,5,0,23.3,23.3,0,0,1,3.3-.28,20.81,20.81,0,0,1,9.58,2.55,28.44,28.44,0,0,1,5.8,4A.85.85,0,0,1,499.18,276.68Z" fill="#fff"/><polygon points="332.86 309.42 167.68 309.42 159.31 316.19 341.79 316.32 332.86 309.42" fill="#d60000"/><polygon points="318.74 296.38 182.01 297.35 170.74 306.91 329.57 306.76 318.74 296.38" fill="#edd6d6"/><rect x="233.8" y="366.27" width="517.99" height="76.8" fill="#ebf0f2"/><path d="M752.45,443.73H233.14V365.61H752.45Zm-518-1.32H751.13V366.93H234.46Z" fill="#4c5054"/><text transform="translate(247.64 390.96)" font-size="14" fill="#333332" font-family="Courier-Bold, Courier" font-weight="700">HTTP/1.1 200 OK<tspan x="0" y="16.8">Access-Control-Allow-Origin: https://malicious-website.com</tspan><tspan x="0" y="33.6">Access-Control-Allow-Credentials: true</tspan></text><rect x="386.98" y="16.11" width="346.37" height="82.79" fill="#ebf0f2"/><path d="M734,99.56H386.32V15.45H734ZM387.64,98.24H732.69V16.77H387.64Z" fill="#4c5054"/><text transform="translate(399.79 36.88)" font-size="14" fill="#333332" font-family="Courier-Bold, Courier" font-weight="700">GET /sensitive-victim-data HTTP/1.1<tspan x="0" y="16.8">Host: vulnerable-website.com</tspan><tspan x="0" y="33.6">Origin: https://malicious-website.com</tspan><tspan x="0" y="50.4">Cookie: sessionid=...</tspan></text></svg>